<svg xmlns="http://www.w3.org/2000/svg" width="1024" height="1024" viewBox="0 0 1024 1024">
<g>
<path d="M 541.33 835.92 C500.89,839.52 455.80,834.64 416.50,822.41 C383.52,812.15 347.03,793.82 319.50,773.69 C279.18,744.21 242.76,701.55 220.31,657.50 C196.60,610.98 186.52,570.38 185.28,516.36 C184.30,473.85 189.01,441.50 201.63,404.00 C241.47,285.61 343.30,202.81 470.50,185.37 C486.88,183.13 535.84,182.79 552.00,184.82 C602.13,191.09 652.24,208.67 692.10,233.97 C772.85,285.23 825.94,368.70 839.66,466.00 C842.22,484.21 842.23,533.48 839.67,551.00 C833.65,592.21 824.61,621.87 807.87,655.26 C778.35,714.16 727.68,766.58 669.54,798.40 C657.98,804.73 635.37,815.00 633.00,815.00 C632.29,815.00 632.61,813.74 633.83,811.75 C637.98,804.99 648.05,777.93 661.64,737.00 C671.86,706.24 678.03,671.36 677.98,644.64 C677.94,624.82 673.37,601.04 666.32,584.00 C651.41,547.94 621.82,516.86 584.76,498.32 C573.29,492.58 555.12,485.64 547.00,483.89 C544.53,483.36 541.66,482.45 540.64,481.88 C537.12,479.92 512.54,476.04 503.50,476.02 L 496.49 476.00 L 496.50 495.75 C496.50,517.07 496.49,517.13 489.50,535.50 C486.64,542.99 478.23,559.87 474.66,565.24 C473.47,567.03 471.18,570.97 469.56,574.00 C467.94,577.03 464.15,583.55 461.14,588.49 C458.13,593.44 454.56,599.97 453.22,602.99 C451.87,606.02 449.65,610.92 448.29,613.88 C435.19,642.37 429.34,681.22 433.47,712.27 C436.47,734.82 445.66,759.00 457.32,775.00 C462.74,782.45 475.24,794.56 482.92,799.81 C509.06,817.66 532.56,824.18 576.50,825.77 L 596.50 826.50 L 589.19 828.29 C578.04,831.02 554.90,834.71 541.33,835.92 ZM 687.39 746.43 C686.19,749.55 689.32,747.86 698.82,740.25 C711.83,729.84 733.59,707.84 745.27,693.29 C779.96,650.07 801.86,598.46 808.00,545.50 C812.95,502.81 807.91,453.36 794.65,414.50 C779.90,371.28 756.59,333.67 724.51,301.40 C686.51,263.16 643.12,238.46 589.50,224.55 C563.82,217.89 540.42,215.00 512.14,215.00 C465.73,215.00 424.47,224.45 381.50,244.92 C334.44,267.34 291.07,305.55 263.77,348.63 C240.29,385.70 226.40,422.81 219.46,467.00 C217.24,481.18 216.39,520.16 217.94,536.71 C223.24,593.04 245.14,647.24 280.63,691.87 C288.53,701.79 318.01,731.89 323.72,735.86 L 326.94 738.09 L 327.52 735.30 C329.11,727.58 334.68,712.18 339.43,702.32 C352.24,675.76 372.04,647.03 405.48,606.50 C449.20,553.50 457.74,541.18 465.49,520.00 C469.46,509.16 470.15,492.00 467.11,479.97 C457.69,442.63 417.39,404.92 364.06,383.52 C341.89,374.62 323.02,370.83 302.19,371.08 C295.43,371.16 289.67,371.01 289.41,370.74 C288.37,369.70 299.79,360.63 306.22,357.39 C315.52,352.70 324.95,350.90 340.00,350.91 C351.22,350.92 358.60,351.68 380.00,354.99 C390.21,356.57 415.46,356.33 425.68,354.56 C435.95,352.77 447.80,349.38 456.50,345.73 C472.39,339.06 488.74,336.00 508.50,336.00 C525.22,336.00 536.40,337.72 550.64,342.48 C591.02,355.98 632.74,390.78 656.82,431.05 C676.53,464.02 688.91,504.66 694.91,556.12 C700.35,602.86 700.14,669.09 694.43,709.00 C692.82,720.24 688.38,743.85 687.39,746.43 ZM 515.43 417.67 C519.75,419.33 521.92,419.22 526.54,417.12 C537.86,411.98 540.30,398.53 531.47,389.97 C528.40,386.99 527.25,386.55 521.74,386.24 C510.49,385.61 504.00,391.35 504.00,401.93 C504.00,409.52 507.80,414.75 515.43,417.67 Z" fill="rgb(19,28,41)"/>
<path d="M 595.54 826.47 L 576.50 825.77 C532.56,824.18 509.06,817.66 482.92,799.81 C475.24,794.56 462.74,782.45 457.32,775.00 C445.66,759.00 436.47,734.82 433.47,712.27 C429.34,681.22 435.19,642.37 448.29,613.88 C449.65,610.92 451.87,606.02 453.22,602.99 C454.56,599.97 458.13,593.44 461.14,588.49 C464.15,583.55 467.94,577.03 469.56,574.00 C471.18,570.97 473.47,567.03 474.66,565.24 C478.23,559.87 486.64,542.99 489.50,535.50 C496.49,517.13 496.50,517.07 496.50,495.75 L 496.49 476.00 L 503.50 476.02 C512.54,476.04 537.12,479.92 540.64,481.88 C541.66,482.45 544.53,483.36 547.00,483.89 C555.12,485.64 573.29,492.58 584.76,498.32 C621.82,516.86 651.41,547.94 666.32,584.00 C673.37,601.04 677.94,624.82 677.98,644.64 C678.03,671.36 671.86,706.24 661.64,737.00 C648.05,777.93 637.98,804.99 633.83,811.75 C632.70,813.59 632.34,814.81 632.86,814.98 C621.79,819.03 609.49,823.07 603.50,824.47 C601.49,824.94 598.49,825.70 595.54,826.47 ZM 307.48 253.49 C318.11,245.09 329.30,237.34 341.00,230.33 C380.61,206.60 423.02,191.88 470.50,185.37 C408.79,193.83 353.06,217.67 307.48,253.49 ZM 497.15 497.50 L 497.24 504.50 L 498.19 499.29 C498.83,495.80 498.80,493.48 498.10,492.29 C497.31,490.94 497.08,492.21 497.15,497.50 ZM 294.53 753.33 C289.17,748.54 283.94,743.55 278.82,738.34 C260.42,719.63 244.32,698.78 230.93,676.54 C247.84,704.47 269.94,731.11 294.53,753.33 ZM 189.06 562.83 C185.14,537.44 184.04,509.18 185.84,482.73 C185.18,493.37 185.01,504.47 185.28,516.36 C185.66,532.92 186.87,548.23 189.06,562.83 ZM 493.72 836.41 C488.70,836.18 484.15,835.88 480.50,835.49 C458.48,833.16 438.17,829.11 418.20,822.93 C442.08,830.20 468.02,834.78 493.72,836.41 ZM 646.06 809.87 C653.82,806.39 663.29,801.82 669.54,798.40 C688.65,787.94 706.96,775.26 723.97,760.84 C700.68,780.65 675.14,797.07 648.85,808.67 C647.99,809.05 647.06,809.45 646.06,809.87 ZM 195.67 423.46 C199.94,407.51 205.45,391.95 212.09,376.92 C208.23,385.72 204.74,394.75 201.63,404.00 C199.40,410.62 197.42,417.08 195.67,423.46 ZM 221.90 660.58 C218.11,653.42 214.59,646.14 211.36,638.76 C214.10,644.93 217.08,651.16 220.31,657.50 C220.83,658.53 221.36,659.55 221.90,660.58 ZM 541.33 835.92 C544.44,835.64 548.05,835.23 551.91,834.74 C547.94,835.25 544.21,835.68 541.00,835.97 C539.84,836.07 538.60,836.16 537.27,836.25 C538.63,836.15 539.98,836.04 541.33,835.92 Z" fill="rgb(21,161,193)"/>
<path d="M 497.15 497.50 C497.08,492.21 497.31,490.94 498.10,492.29 C498.80,493.48 498.83,495.80 498.19,499.29 L 497.24 504.50 Z" fill="rgb(25,152,167)"/>
<path d="M 0.00 512.00 L 0.00 0.00 L 512.00 0.00 L 1024.00 0.00 L 1024.00 512.00 L 1024.00 1024.00 L 512.00 1024.00 L 0.00 1024.00 L 0.00 512.00 ZM 541.00 835.97 C555.53,834.67 580.72,830.54 590.22,827.90 C594.22,826.78 600.20,825.24 603.50,824.47 C612.81,822.30 637.39,813.74 648.85,808.67 C714.09,779.88 774.73,721.38 807.87,655.26 C824.61,621.87 833.65,592.21 839.67,551.00 C842.23,533.48 842.22,484.21 839.66,466.00 C825.94,368.70 772.85,285.23 692.10,233.97 C652.24,208.67 602.13,191.09 552.00,184.82 C535.84,182.79 486.88,183.13 470.50,185.37 C423.02,191.88 380.61,206.60 341.00,230.33 C260.62,278.47 204.22,361.52 189.10,454.00 C182.99,491.38 183.75,537.15 191.09,574.46 C202.96,634.72 234.06,692.82 278.82,738.34 C305.20,765.17 334.72,786.45 368.50,802.99 C405.75,821.23 440.25,831.24 480.50,835.49 C495.54,837.08 525.87,837.32 541.00,835.97 ZM 687.39 746.43 C688.38,743.85 692.82,720.24 694.43,709.00 C700.14,669.09 700.35,602.86 694.91,556.12 C688.91,504.66 676.53,464.02 656.82,431.05 C632.74,390.78 591.02,355.98 550.64,342.48 C536.40,337.72 525.22,336.00 508.50,336.00 C488.74,336.00 472.39,339.06 456.50,345.73 C447.80,349.38 435.95,352.77 425.68,354.56 C415.46,356.33 390.21,356.57 380.00,354.99 C358.60,351.68 351.22,350.92 340.00,350.91 C324.95,350.90 315.52,352.70 306.22,357.39 C299.79,360.63 288.37,369.70 289.41,370.74 C289.67,371.01 295.43,371.16 302.19,371.08 C323.02,370.83 341.89,374.62 364.06,383.52 C417.39,404.92 457.69,442.63 467.11,479.97 C470.15,492.00 469.46,509.16 465.49,520.00 C457.74,541.18 449.20,553.50 405.48,606.50 C372.04,647.03 352.24,675.76 339.43,702.32 C334.68,712.18 329.11,727.58 327.52,735.30 L 326.94 738.09 L 323.72 735.86 C318.01,731.89 288.53,701.79 280.63,691.87 C245.14,647.24 223.24,593.04 217.94,536.71 C216.39,520.16 217.24,481.18 219.46,467.00 C226.40,422.81 240.29,385.70 263.77,348.63 C291.07,305.55 334.44,267.34 381.50,244.92 C424.47,224.45 465.73,215.00 512.14,215.00 C540.42,215.00 563.82,217.89 589.50,224.55 C643.12,238.46 686.51,263.16 724.51,301.40 C756.59,333.67 779.90,371.28 794.65,414.50 C807.91,453.36 812.95,502.81 808.00,545.50 C801.86,598.46 779.96,650.07 745.27,693.29 C733.59,707.84 711.83,729.84 698.82,740.25 C689.32,747.86 686.19,749.55 687.39,746.43 ZM 515.43 417.67 C507.80,414.75 504.00,409.52 504.00,401.93 C504.00,391.35 510.49,385.61 521.74,386.24 C527.25,386.55 528.40,386.99 531.47,389.97 C540.30,398.53 537.86,411.98 526.54,417.12 C521.92,419.22 519.75,419.33 515.43,417.67 Z" fill="rgb(254,254,254)"/>
</g>
</svg>